<svg width="497" height="126" viewBox="0 0 412 126" fill="none" xmlns="http://www.w3.org/2000/svg">
<path d="M61.1841 103.377C-29.7586 140.462 -51.3643 123.524 -50.7993 110.419L-68.7846 34.4145L-20.7885 -29.2338L109.166 -118.357L614.083 -203.18C616.59 -140.943 617.048 -2.25833 598.824 54.5879C576.045 125.646 427.484 89.6609 343.788 67.5122C260.091 45.3635 174.862 57.0192 61.1841 103.377Z" fill="#623ED6" fill-opacity="0.6"/>
<path d="M61.1841 103.377C-29.7586 140.462 -51.3643 123.524 -50.7993 110.419L-68.7846 34.4145L-20.7885 -29.2338L109.166 -118.357L614.083 -203.18C616.59 -140.943 617.048 -2.25833 598.824 54.5879C576.045 125.646 427.484 89.6609 343.788 67.5122C260.091 45.3635 174.862 57.0192 61.1841 103.377Z" fill="url(#paint0_linear_61_96)"/>
<defs>
<linearGradient id="paint0_linear_61_96" x1="-297.662" y1="243.713" x2="329.493" y2="167.271" gradientUnits="userSpaceOnUse">
<stop offset="0.270833" stop-color="#87379D"/>
<stop offset="1" stop-color="#50185F" stop-opacity="0"/>
</linearGradient>
</defs>
</svg>
