<svg width="412" height="161" viewBox="0 0 412 161" fill="none" xmlns="http://www.w3.org/2000/svg">
<path d="M-57.839 82.2863C-181.218 70.0994 -202.99 87.3642 -198.454 97.5199V160.359L-120.435 201.299L66.4472 247L716 219.865C700.88 170.673 660.842 62.0065 621.652 20.8757C572.663 -30.5378 399.388 25.1602 302.318 58.0077C205.248 90.8552 96.3844 97.5199 -57.839 82.2863Z" fill="#623ED6" fill-opacity="0.14"/>
<path d="M-57.839 82.2863C-181.218 70.0994 -202.99 87.3642 -198.454 97.5199V160.359L-120.435 201.299L66.4472 247L716 219.865C700.88 170.673 660.842 62.0065 621.652 20.8757C572.663 -30.5378 399.388 25.1602 302.318 58.0077C205.248 90.8552 96.3844 97.5199 -57.839 82.2863Z" fill="url(#paint0_linear_61_97)"/>
<defs>
<linearGradient id="paint0_linear_61_97" x1="-542.916" y1="38.8951" x2="241.003" y2="-99.2718" gradientUnits="userSpaceOnUse">
<stop offset="0.270833" stop-color="#87379D"/>
<stop offset="1" stop-color="#50185F" stop-opacity="0"/>
</linearGradient>
</defs>
</svg>
