<svg width="497" height="155" viewBox="0 0 412 155" fill="none" xmlns="http://www.w3.org/2000/svg">
<path d="M53.4155 82.2863C-101.651 70.0994 -129.015 87.3642 -123.314 97.5199V160.359L-25.2575 201.299L209.622 247L1026 219.865C1007 170.673 956.676 62.0065 907.42 20.8757C845.85 -30.5378 628.073 25.1601 506.072 58.0077C384.072 90.8552 247.248 97.5199 53.4155 82.2863Z" fill="#623ED6" fill-opacity="0.14"/>
<path d="M53.4155 82.2863C-101.651 70.0994 -129.015 87.3642 -123.314 97.5199V160.359L-25.2575 201.299L209.622 247L1026 219.865C1007 170.673 956.676 62.0065 907.42 20.8757C845.85 -30.5378 628.073 25.1601 506.072 58.0077C384.072 90.8552 247.248 97.5199 53.4155 82.2863Z" fill="url(#paint0_linear_138_9)"/>
<defs>
<linearGradient id="paint0_linear_138_9" x1="-556.244" y1="38.8951" x2="412.099" y2="-175.611" gradientUnits="userSpaceOnUse">
<stop offset="0.270833" stop-color="#87379D"/>
<stop offset="1" stop-color="#50185F" stop-opacity="0"/>
</linearGradient>
</defs>
</svg>
