<svg width="40" height="40" viewBox="0 0 39 35" fill="black" xmlns="http://www.w3.org/2000/svg">
<path d="M24.375 23.75C24.375 24.4406 23.8296 25 23.1562 25H15.8438C15.1704 25 14.625 24.4406 14.625 23.75V20H0V31.25C0 33.25 1.70625 35 3.65625 35H35.3438C37.2938 35 39 33.25 39 31.25V20H24.375V23.75ZM35.3438 7.5H29.25V3.75C29.25 1.75 27.5438 0 25.5938 0H13.4062C11.4563 0 9.75 1.75 9.75 3.75V7.5H3.65625C1.70625 7.5 0 9.25 0 11.25V17.5H39V11.25C39 9.25 37.2938 7.5 35.3438 7.5ZM24.375 7.5H14.625V5H24.375V7.5Z" fill="#fff"/>
</svg>
