<svg width="37" height="37" viewBox="0 0 37 37" fill="none" xmlns="http://www.w3.org/2000/svg">
<path d="M21.2685 34.5218L19.4352 36.4027C18.659 37.1991 17.4037 37.1991 16.6358 36.4027L0.58219 19.9403C-0.194063 19.1439 -0.194063 17.8561 0.58219 17.0681L16.6358 0.597321C17.412 -0.199107 18.6672 -0.199107 19.4352 0.597321L21.2685 2.47825C22.053 3.28315 22.0365 4.5964 21.2355 5.38436L11.2846 15.1109H35.0181C36.1164 15.1109 37 16.0175 37 17.1444V19.8556C37 20.9825 36.1164 21.8891 35.0181 21.8891H11.2846L21.2355 31.6156C22.0448 32.4036 22.0613 33.7169 21.2685 34.5218Z" fill="white"/>
</svg>
