<svg width="50" height="50" viewBox="0 0 50 50" fill="none" xmlns="http://www.w3.org/2000/svg">
<path d="M24.803 0C11.1014 0 0 11.1895 0 25C0 38.8105 11.1014 50 24.803 50C38.5047 50 49.6061 38.8105 49.6061 25C49.6061 11.1895 38.5047 0 24.803 0ZM24.803 9.67742C29.6636 9.67742 33.6041 13.6492 33.6041 18.5484C33.6041 23.4476 29.6636 27.4194 24.803 27.4194C19.9424 27.4194 16.002 23.4476 16.002 18.5484C16.002 13.6492 19.9424 9.67742 24.803 9.67742ZM24.803 44.3548C18.9323 44.3548 13.6717 41.6734 10.1512 37.4798C12.0315 33.9113 15.7119 31.4516 20.0024 31.4516C20.2425 31.4516 20.4825 31.4919 20.7125 31.5625C22.0127 31.9859 23.3729 32.2581 24.803 32.2581C26.2332 32.2581 27.6034 31.9859 28.8935 31.5625C29.1236 31.4919 29.3636 31.4516 29.6036 31.4516C33.8941 31.4516 37.5746 33.9113 39.4548 37.4798C35.9344 41.6734 30.6738 44.3548 24.803 44.3548Z" fill="#fff"/>
</svg>
