<svg width="48" height="48" viewBox="0 0 48 48" fill="none" xmlns="http://www.w3.org/2000/svg">
<path d="M0 24C0 10.7419 10.7419 0 24 0C37.2581 0 48 10.7419 48 24C48 37.2581 37.2581 48 24 48C10.7419 48 0 37.2581 0 24ZM22.3548 12.9774L9.24193 26.0903C8.33226 27 8.33226 28.471 9.24193 29.371L10.8871 31.0161C11.7968 31.9258 13.2677 31.9258 14.1677 31.0161L24 21.1839L33.8323 31.0161C34.7419 31.9258 36.2129 31.9258 37.1129 31.0161L38.7581 29.371C39.6677 28.4613 39.6677 26.9903 38.7581 26.0903L25.6452 12.9774C24.7355 12.0677 23.2645 12.0677 22.3548 12.9774Z" fill="#fff"/>
</svg>
